<svg xmlns="http://www.w3.org/2000/svg" xmlns:xlink="http://www.w3.org/1999/xlink" width="500" zoomAndPan="magnify" viewBox="0 0 375 374.999991" height="500" preserveAspectRatio="xMidYMid meet" version="1.0"><defs><g/><clipPath id="6068d3f034"><path d="M 187.5 0 C 83.945312 0 0 83.945312 0 187.5 C 0 291.054688 83.945312 375 187.5 375 C 291.054688 375 375 291.054688 375 187.5 C 375 83.945312 291.054688 0 187.5 0 Z M 187.5 0 " clip-rule="nonzero"/></clipPath></defs><g clip-path="url(#6068d3f034)"><rect x="-37.5" width="450" fill="#000000" y="-37.499999" height="449.999989" fill-opacity="1"/></g><g fill="#ffffff" fill-opacity="1"><g transform="translate(76.757812, 257.249983)"><g><path d="M 16.5 -147.40625 L 48.625 -147.40625 L 48.625 -30.140625 L 99.65625 -30.140625 L 99.65625 0 L 16.5 0 Z M 16.5 -147.40625 "/></g></g></g><g fill="#ffffff" fill-opacity="1"><g transform="translate(189.616383, 257.249983)"><g><path d="M 16.5 -147.40625 L 61.15625 -147.40625 C 69.082031 -147.40625 76.378906 -146.15625 83.046875 -143.65625 C 89.722656 -141.164062 95.476562 -137.679688 100.3125 -133.203125 C 105.15625 -128.734375 108.929688 -123.453125 111.640625 -117.359375 C 114.359375 -111.273438 115.71875 -104.640625 115.71875 -97.453125 C 115.71875 -90.273438 114.359375 -83.640625 111.640625 -77.546875 C 108.929688 -71.460938 105.226562 -66.21875 100.53125 -61.8125 C 95.84375 -57.414062 90.195312 -53.96875 83.59375 -51.46875 C 77 -48.976562 69.890625 -47.734375 62.265625 -47.734375 L 48.625 -47.734375 L 48.625 0 L 16.5 0 Z M 61.15625 -77.875 C 67.90625 -77.875 73.332031 -79.597656 77.4375 -83.046875 C 81.539062 -86.492188 83.59375 -91.296875 83.59375 -97.453125 C 83.59375 -103.472656 81.539062 -108.28125 77.4375 -111.875 C 73.332031 -115.46875 67.90625 -117.265625 61.15625 -117.265625 L 48.625 -117.265625 L 48.625 -77.875 Z M 61.15625 -77.875 "/></g></g></g></svg>